<?xml version="1.0" encoding="iso-8859-1"?>
<!-- Uploaded to: SVG Repo, www.svgrepo.com, Generator: SVG Repo Mixer Tools -->
<svg fill="#000000" height="800px" width="800px" version="1.1" id="Layer_1" xmlns="http://www.w3.org/2000/svg" xmlns:xlink="http://www.w3.org/1999/xlink" 
	 viewBox="0 0 512 512" xml:space="preserve">
<g>
	<g>
		<circle cx="199.019" cy="173.538" r="15.734"/>
	</g>
</g>
<g>
	<g>
		<circle cx="312.985" cy="173.538" r="15.734"/>
	</g>
</g>
<g>
	<g>
		<path d="M321.462,338.871h-0.002h-0.01h-23.872v-9.105h13.811c40.878,0,74.135-33.257,74.135-74.136v-19.732
			c20.397-5.113,35.55-23.594,35.55-45.554c0-21.63-15.119-40.367-35.55-45.532v-15.281C385.527,58.106,327.42,0,255.999,0
			c-71.422,0-129.528,58.106-129.528,129.528v15.281c-20.431,5.168-35.55,23.903-35.55,45.533c0,21.96,15.152,40.441,35.55,45.554
			v19.732c0,40.879,33.257,74.136,74.136,74.136h13.811v9.105h-23.871c-54.934,0-99.626,44.692-99.626,99.625v65.512
			c0,4.415,3.579,7.993,7.993,7.993h314.17c4.414,0,7.993-3.578,7.993-7.993v-65.512
			C421.077,383.565,376.391,338.876,321.462,338.871z M385.527,192.583v-31.018c11.466,4.599,19.564,15.915,19.564,28.777
			c0,13.048-8.12,24.223-19.564,28.779V192.583z M126.471,192.583v26.537c-11.445-4.556-19.564-15.731-19.564-28.779
			c0-12.861,8.1-24.177,19.564-28.778V192.583z M313.467,354.855v7.326c0,13.638-11.095,24.733-24.733,24.733
			s-24.733-11.095-24.733-24.733v-7.326h25.586H313.467z M255.999,338.87h-25.595v-17.098v-2.195c0,0.516,10.43,1.647,11.39,1.752
			c4.102,0.449,8.225,0.702,12.351,0.761c8.252,0.117,16.515-0.547,24.641-1.991c0.937-0.166,1.875-0.335,2.808-0.521v2.195v17.098
			C281.594,338.87,256.008,338.87,255.999,338.87z M369.543,255.628h-0.002c0,32.065-26.086,58.151-58.15,58.151h-9.629
			c0.457-0.174,0.907-0.366,1.362-0.545c0.315-0.124,0.63-0.252,0.944-0.377c14.054-5.637,27.074-13.773,38.365-23.859
			c6.048-5.402,11.595-11.367,16.521-17.809c3.958-5.175,7.491-10.583,10.588-16.185V255.628z M142.456,129.528h0.001
			c0-62.608,50.935-113.543,113.543-113.543s113.542,50.935,113.542,113.543v12.095c-40.684-8.996-84.061-31.517-103.707-70.034
			c-0.156-0.305-0.309-0.611-0.46-0.919c-1.264-2.563-1.813-4.065-1.827-4.102c-1.119-3.212-4.148-5.364-7.548-5.364
			c-3.278,0-6.193,2.011-7.402,5.032c-0.042,0.102-0.097,0.196-0.134,0.3c-0.038,0.109-2.9,7.923-10.742,18.582
			c-0.02,0.027-0.038,0.053-0.059,0.08c-0.233,0.316-0.475,0.637-0.717,0.958c-0.175,0.231-0.348,0.462-0.529,0.696
			c-0.081,0.106-0.164,0.212-0.246,0.318c-6.749,8.722-16.765,19.081-31.195,28.749c-0.085,0.058-0.172,0.114-0.257,0.17
			c-0.65,0.434-1.31,0.866-1.978,1.297c-0.577,0.37-1.155,0.735-1.735,1.097c-0.237,0.148-0.469,0.297-0.708,0.445
			c-19.419,11.948-40.235,18.779-57.841,22.688V129.528z M200.608,313.781v-0.001c-32.065,0-58.151-26.087-58.151-58.151v-0.623
			c3.096,5.602,6.63,11.01,10.588,16.186c9.176,12.001,20.508,22.351,33.223,30.5c6.848,4.393,14.113,8.135,21.662,11.167
			c0.314,0.126,0.629,0.254,0.944,0.377c0.455,0.179,0.905,0.371,1.362,0.545H200.608z M213.678,297.707
			c-39.35-16.101-67.636-54.214-70.9-96.704c-1.093-14.236-0.322-28.759-0.322-43.032c0-0.49,22.996-5.79,25.175-6.498
			c9.019-2.927,17.81-6.558,26.272-10.836c22.907-11.582,44.042-27.721,58.763-48.928c1.23-1.771,2.337-3.466,3.331-5.065
			c3.978,6.398,9.767,14.311,17.912,22.607c0.526,0.536,1.068,1.078,1.622,1.624c0.19,0.186,0.389,0.376,0.581,0.564
			c13.192,12.853,29.192,23.15,45.821,31.051c15.156,7.201,31.218,12.104,47.606,15.482c0,25.919,1.791,52.132-8.094,76.702
			c-7.797,19.379-21.13,36.342-37.869,48.797c-18.32,13.631-40.622,21.759-63.477,22.586
			C243.972,306.643,228.184,303.642,213.678,297.707z M198.54,354.855h23.871h25.595v7.326c0,13.638-11.095,24.733-24.733,24.733
			c-13.638,0-24.733-11.095-24.733-24.733V354.855z M106.907,496.015v-57.519c0-43.423,33.265-79.21,75.648-83.249v6.934
			c0,22.452,18.266,40.718,40.718,40.718c13.399,0,25.305-6.508,32.73-16.528c7.425,10.019,19.331,16.528,32.73,16.528
			c22.452,0,40.718-18.266,40.718-40.718v-6.934c42.38,4.042,75.639,39.828,75.639,83.248v57.52H106.907z"/>
	</g>
</g>
<g>
	<g>
		<path d="M303.027,230.212c-2.572-3.588-7.563-4.416-11.153-1.843c-7.498,5.371-21.244,8.708-35.871,8.708
			c-14.632,0-28.38-3.339-35.878-8.713c-3.589-2.574-8.582-1.749-11.153,1.84c-2.572,3.587-1.748,8.581,1.839,11.153
			c10.226,7.33,27.12,11.706,45.191,11.706c18.066,0,34.955-4.374,45.181-11.699C304.772,238.793,305.598,233.8,303.027,230.212z"/>
	</g>
</g>
</svg>